<svg height="558" width="720" xmlns="http://www.w3.org/2000/svg">
<rect height="558" fill="#555" width="720"></rect>
<text fill="#7f7" font-family="Courier New" font-size="12" xml:space="preserve">
<tspan x="10" y="26">5 megabytes installed</tspan>
<tspan x="10" y="42"></tspan>
<tspan x="10" y="58">node_modules</tspan>
<tspan x="10" y="74">└─┬ mongorito@2.2.0 </tspan>
<tspan x="10" y="90">  ├── bluebird@3.5.0 </tspan>
<tspan x="10" y="106">  ├─┬ class-extend@0.1.2 </tspan>
<tspan x="10" y="122">  │ └── object-assign@2.1.1 </tspan>
<tspan x="10" y="138">  ├── clone@1.0.2 </tspan>
<tspan x="10" y="154">  ├── co@4.6.0 </tspan>
<tspan x="10" y="170">  ├── get-value@2.0.6 </tspan>
<tspan x="10" y="186">  ├── is-generator-fn@1.0.0 </tspan>
<tspan x="10" y="202">  ├── is_js@0.7.6 </tspan>
<tspan x="10" y="218">  ├── lodash.result@4.5.2 </tspan>
<tspan x="10" y="234">  ├─┬ mongodb@2.2.26 </tspan>
<tspan x="10" y="250">  │ ├── es6-promise@3.2.1 </tspan>
<tspan x="10" y="266">  │ ├─┬ mongodb-core@2.1.10 </tspan>
<tspan x="10" y="282">  │ │ ├── bson@1.0.4 </tspan>
<tspan x="10" y="298">  │ │ └─┬ require_optional@1.0.0 </tspan>
<tspan x="10" y="314">  │ │   ├── resolve-from@2.0.0 </tspan>
<tspan x="10" y="330">  │ │   └── semver@5.3.0 </tspan>
<tspan x="10" y="346">  │ └─┬ readable-stream@2.2.7 </tspan>
<tspan x="10" y="362">  │   ├── buffer-shims@1.0.0 </tspan>
<tspan x="10" y="378">  │   ├── core-util-is@1.0.2 </tspan>
<tspan x="10" y="394">  │   ├── inherits@2.0.3 </tspan>
<tspan x="10" y="410">  │   ├── isarray@1.0.0 </tspan>
<tspan x="10" y="426">  │   ├── process-nextick-args@1.0.7 </tspan>
<tspan x="10" y="442">  │   ├── string_decoder@1.0.0 </tspan>
<tspan x="10" y="458">  │   └── util-deprecate@1.0.2 </tspan>
<tspan x="10" y="474">  ├── object-assign@4.1.1 </tspan>
<tspan x="10" y="490">  ├── pluralize@1.2.1 </tspan>
<tspan x="10" y="506">  └─┬ set-value@0.2.0 </tspan>
<tspan x="10" y="522">    ├── isobject@1.0.2 </tspan>
<tspan x="10" y="538">    └── noncharacters@1.1.0</tspan>
</text>
</svg>
